<svg id="Capa_1" data-name="Capa 1" xmlns="http://www.w3.org/2000/svg" viewBox="0 0 1085.14 593.91"><defs><style>.cls-1{fill:#2b3020;}.cls-1,.cls-10,.cls-11,.cls-12,.cls-13,.cls-14,.cls-15,.cls-16,.cls-17,.cls-18,.cls-2,.cls-3,.cls-4,.cls-5,.cls-6,.cls-7,.cls-8{stroke:#000;stroke-miterlimit:10;}.cls-2{fill:#b2b7bc;}.cls-3{fill:#888989;}.cls-4{fill:#e9484a;}.cls-5{fill:#ebe3dd;}.cls-6{fill:none;}.cls-7{fill:#b3aca8;}.cls-8{fill:#fff;}.cls-9{fill:#1d1d1b;}.cls-10{fill:#044866;}.cls-11{fill:#6ab42d;}.cls-12{fill:#d5edf9;}.cls-13{fill:#f18318;}.cls-14{fill:#fae926;}.cls-15{fill:#d94391;}.cls-16{fill:#176a97;}.cls-17{fill:#219cd8;}.cls-18{fill:#d80f16;}</style></defs><title>foodtruck</title><polygon points="134.83 499.92 1025.93 499.92 955.61 418.79 337.66 384.98 353.88 149.7 141.59 159.17 75.33 285.44 134.83 499.92"/><circle class="cls-1" cx="953.87" cy="845.2" r="79.02" transform="translate(-401.94 326.85) rotate(-33.08)"/><circle class="cls-1" cx="953.87" cy="845.2" r="67.95" transform="translate(-401.94 326.85) rotate(-33.08)"/><circle class="cls-2" cx="953.87" cy="845.2" r="45.97" transform="translate(-401.94 326.85) rotate(-33.08)"/><circle class="cls-3" cx="953.87" cy="845.2" r="28.97" transform="translate(-401.94 326.85) rotate(-33.08)"/><circle class="cls-1" cx="984.57" cy="864.65" r="4.29" transform="translate(-407.58 346.76) rotate(-33.08)"/><circle class="cls-1" cx="962.73" cy="880.96" r="3.89" transform="matrix(0.84, -0.55, 0.55, 0.84, -420.02, 337.48)"/><circle class="cls-1" cx="939.19" cy="880.06" r="3.82" transform="translate(-423.35 324.49) rotate(-33.08)"/><circle class="cls-1" cx="920.74" cy="865.61" r="3.75" transform="translate(-418.45 312.08) rotate(-33.08)"/><circle class="cls-1" cx="915.05" cy="843.01" r="3.82" transform="translate(-407.03 305.31) rotate(-33.08)"/><circle class="cls-1" cx="925.3" cy="821.54" r="4.96" transform="matrix(0.84, -0.55, 0.55, 0.84, -393.66, 307.42)"/><circle class="cls-1" cx="946.51" cy="806.84" r="4.62" transform="translate(-382.19 316.62) rotate(-33.08)"/><circle class="cls-1" cx="968.02" cy="812.74" r="4.82" transform="translate(-381.92 329.32) rotate(-33.08)"/><circle class="cls-1" cx="985.33" cy="824.71" r="4.69" transform="translate(-385.65 340.7) rotate(-33.08)"/><circle class="cls-1" cx="991.72" cy="845.44" r="4.15" transform="translate(-395.93 347.55) rotate(-33.08)"/><path class="cls-4" d="M235.46,845.61S135.4,857.78,125.94,833.44,130,632,136.75,625.21H466.69v64.91l711.26,1.35V829.39s10.82,5.41-25.69,6.76-73-5.41-73-5.41-23-54.09-86.54-54.09H903.45s-41.92,8.11-58.14,46c0,0,6.76,13.52-39.21,10.82L442.35,834.8S427.48,833.44,418,809.1s-28.4-63.55-74.37-60.85l-46,2.7S258.45,753.66,235.46,845.61Z" transform="translate(-95.23 -330.82)"/><path class="cls-5" d="M1179.44,496.75s6.62-33.8-32.6-40.57-770.75,0-770.75,0-160.91,14.87-146,40.57L166.5,588.7a48.59,48.59,0,0,0-29.75,36.51H466.69v64.91l711.26,1.35Z" transform="translate(-95.23 -330.82)"/><path class="cls-6" d="M139.46,809.1" transform="translate(-95.23 -330.82)"/><path class="cls-5" d="M441.2,496.75V625.21H159.74a46.28,46.28,0,0,1,24.34-21.64l58.14-106.82Z" transform="translate(-95.23 -330.82)"/><path class="cls-2" d="M481.56,733.29H814.2s14.87-8.16,0-12.21-332.64,0-332.64,0S468,733.29,481.56,733.29Z" transform="translate(-95.23 -330.82)"/><path class="cls-6" d="M481.56,756.73H814.2s14.87-8.16,0-12.21-332.64,0-332.64,0S468,756.73,481.56,756.73Z" transform="translate(-95.23 -330.82)"/><path class="cls-2" d="M481.56,756.73H814.2s14.87-8.16,0-12.21-332.64,0-332.64,0S468,756.73,481.56,756.73Z" transform="translate(-95.23 -330.82)"/><path class="cls-2" d="M485,775.94H817.67s14.87-8.16,0-12.21-332.64,0-332.64,0S471.5,775.94,485,775.94Z" transform="translate(-95.23 -330.82)"/><path class="cls-6" d="M485,799.37H817.67s14.87-8.16,0-12.21-332.64,0-332.64,0S471.5,799.37,485,799.37Z" transform="translate(-95.23 -330.82)"/><path class="cls-2" d="M485,799.37H817.67s14.87-8.16,0-12.21-332.64,0-332.64,0S471.5,799.37,485,799.37Z" transform="translate(-95.23 -330.82)"/><circle class="cls-1" cx="238.87" cy="510.12" r="79.02"/><circle class="cls-1" cx="238.87" cy="510.12" r="67.95"/><circle class="cls-2" cx="238.87" cy="510.12" r="45.97"/><circle class="cls-3" cx="238.87" cy="510.12" r="28.97"/><circle class="cls-1" cx="223.76" cy="477.06" r="4.29"/><circle class="cls-1" cx="250.96" cy="475.32" r="3.89"/><circle class="cls-1" cx="270.19" cy="488.92" r="3.82"/><circle class="cls-1" cx="277.76" cy="511.1" r="3.75"/><circle class="cls-1" cx="270.19" cy="533.14" r="3.82"/><circle class="cls-1" cx="249.89" cy="545.54" r="4.96"/><circle class="cls-1" cx="224.09" cy="546.28" r="4.62"/><circle class="cls-1" cx="209.28" cy="529.59" r="4.82"/><circle class="cls-1" cx="201.31" cy="510.12" r="4.69"/><circle class="cls-1" cx="207.27" cy="489.26" r="4.15"/><polygon class="cls-5" points="410.68 165.93 389.24 15.98 1047.88 15.98 1024.06 165.93 410.68 165.93"/><polygon class="cls-5" points="395.19 0.5 389.24 15.98 1047.88 15.98 1041.93 0.5 395.19 0.5"/><path class="cls-2" d="M142.08,776.86H113.83a22.75,22.75,0,0,1,9.49-7.93v-12.2s-24.14,4.68-27.59,20.13V809.1h47.19Z" transform="translate(-95.23 -330.82)"/><path class="cls-4" d="M159.74,625.21S123.23,699.58,146.22,828c0,0,75.72,13.52,85.19-18.93s-2.7-73,123-74.37H418s25.69,18.93,23-50l.2-59.5Z" transform="translate(-95.23 -330.82)"/><path class="cls-7" d="M394.8,660.44h32.43s6,3.61,0,7.77l-32.43-.45S388.29,664.59,394.8,660.44Z" transform="translate(-95.23 -330.82)"/><rect class="cls-8" x="410.26" y="165.53" width="616.61" height="155.07"/><path class="cls-9" d="M574.12,382.36a11.23,11.23,0,0,1-.49,4.29c-.54,1.78-1.46,2.79-2.57,3a3.08,3.08,0,0,1-1.78-.45,4.35,4.35,0,0,0-1.72-.58c-1.12,0-3.56,1.29-7.22,3.82-4,2.75-6.74,5.28-8.26,7.57,2.19,9.68,3.43,14.71,3.77,21.83A32.57,32.57,0,0,0,560,419a8.34,8.34,0,0,1,3.93-2c1.1-.07,3.58,2.2,6.72,5.76s4.69,6.55,4.64,8.05a8.68,8.68,0,0,1-1.62,4.46,6,6,0,0,1-2.46,2.34c-.36.18-.86.06-1.5-.33a3.32,3.32,0,0,0-1.33-.59.77.77,0,0,0-.54.26c-1.73,1-3.24,2-4.55,2.93-3.25,2.25-5.31,4.15-6.2,5.64.58,8.15.94,12.58,1.41,20.16a5.77,5.77,0,0,0,1.13,2.74,6.12,6.12,0,0,1,1.14,3.21c.14,4.32-1.54,6.41-4.68,7.09a32.93,32.93,0,0,1-8.94-5.93c-2.77-2.64-4.24-5.24-4.39-7.5-2-28.57-4.31-55.08-10.41-83.09a9.85,9.85,0,0,0-1.75-3.88,5.18,5.18,0,0,1-1.27-2.77,5.07,5.07,0,0,1,1.46-3.22,5.18,5.18,0,0,1,3.27-1.62c.55-.06,2.25.79,5.29,2.84s5.15,3.31,6.12,3.53c3.82-2,5.77-3,9.76-4.85a15.34,15.34,0,0,1,4.11-2.23c1.56-.19,4.13,1,8.21,4.42S574,380.66,574.12,382.36Z" transform="translate(-95.23 -330.82)"/><path class="cls-9" d="M616.79,476.61a10.5,10.5,0,0,1-4.32-.57c-1.6-.52-3.21-1.13-4.73-1.66a68.75,68.75,0,0,1-8.76-3.32c-4.88-2.36-9-8.71-12.2-18.35a98.46,98.46,0,0,1-4.9-28.12c-.14-9.57-.94-19.47-1.33-29-.67-16.53,3-23,7.93-23a7.15,7.15,0,0,1,1.88.35,15.52,15.52,0,0,0,1.89.45c4.53-1.48,7.5-2.16,8.83-2.17a19,19,0,0,1,1.9.09c10.11.85,16.09,10.28,20.46,17.52,6,10,10.58,23.28,11.12,35.44a118.9,118.9,0,0,1-3.6,35.62C627.91,471.21,623,475.79,616.79,476.61ZM606.21,385c-1.47-.5-2.43,2-2.64,7.73s-1,8.68-2.35,8.69a3.24,3.24,0,0,1-1.5-.73,5.2,5.2,0,0,0-1.62-.86c-.77,6.66.23,15.68.49,24.9a115.56,115.56,0,0,0,3.33,23.51c2.08,8.15,4.56,12.6,7.4,13.38,3.33.92,5.73-4.21,7.15-15.49,1.2-9.56,2.13-20,1.06-29.52a102.39,102.39,0,0,0-5.09-21.11C610.19,389.06,608.16,385.64,606.21,385Z" transform="translate(-95.23 -330.82)"/><path class="cls-9" d="M674.17,476.61a10.33,10.33,0,0,1-4.28-.57c-1.59-.52-3.18-1.13-4.68-1.66a67,67,0,0,1-8.65-3.32c-4.81-2.36-8.84-8.7-11.77-18.35a107.8,107.8,0,0,1-4.44-28.12c-.21-9.73-.6-19.59-.6-29.24,0-16.72,3.78-23.24,8.77-23.28a7.27,7.27,0,0,1,1.9.34,15.75,15.75,0,0,0,1.91.45c4.6-1.51,7.62-2.19,9-2.2q1,0,1.93.08c7.75.9,14.23,5.7,20.06,17.63,5.4,11,9.32,23.7,9.75,35.83a114,114,0,0,1-4.43,35.62C685.23,471.22,680.38,475.79,674.17,476.61Zm-8.11-92c-1.47-.51-2.53,2-3,7.84s-1.39,8.8-2.76,8.8a3.09,3.09,0,0,1-1.48-.73,4.93,4.93,0,0,0-1.6-.87c-1.08,6.75-.43,15.87-.18,25.09a128.54,128.54,0,0,0,2.91,23.51c1.87,8.15,4.24,12.6,7,13.38q4.93,1.38,7.5-15.49c1.45-9.49,2.48-20,1.56-29.54a117.26,117.26,0,0,0-4.22-21.36C669.89,388.7,668,385.24,666.05,384.57Z" transform="translate(-95.23 -330.82)"/><path class="cls-9" d="M744.35,413.05c.55,8.92-1.4,15.55-5,27-2.78,8.93-6.29,18.5-10.88,26.69-3.72,6.64-6.53,9.61-8.33,10.47a7.49,7.49,0,0,1-3.06.59,19,19,0,0,1-9.09-2.87,20.55,20.55,0,0,1-6.89-5.8c-.47-30.89-2.12-60.71-5.47-91.42,0-2.06.87-3.2,2.58-3.58a31.22,31.22,0,0,1,4.88.73c.58.07,2.43-.77,5.58-2.36a19.26,19.26,0,0,1,8.25-2.34,15.36,15.36,0,0,1,8.25,2.25,44.56,44.56,0,0,1,7.07,6.12,37.66,37.66,0,0,1,9.54,16.11C743,398.58,743.87,405.28,744.35,413.05Zm-17.74-25.83a2.51,2.51,0,0,0-1.57-.39c-3.38,0-7.26,2.1-11.52,6.34,1.9,18.66,2.76,36.84,2.88,55.6,4.13-3.66,7.69-14.06,10.54-24.07,2.52-8.82,2.65-19.74,1.76-28.74C728.22,390.87,727.57,387.94,726.62,387.23Z" transform="translate(-95.23 -330.82)"/><path class="cls-9" d="M818.63,390.27a4.14,4.14,0,0,1-2.1-.89,2.63,2.63,0,0,0-2.2-.61c-3.95,1.6-5.91,2.4-9.82,4,.21,22.4-.09,44.55-1.16,66.92a28.15,28.15,0,0,0,.92,8.32,13.14,13.14,0,0,1-.33,4.58c-.44,2.35-1,3.68-1.79,4.22a2.39,2.39,0,0,1-.9.1,34.45,34.45,0,0,1-8.27-1.34c-3.94-1-6.32-2.14-7-3.21-.83-1.34-.75-3.3.24-5.87a17.84,17.84,0,0,0,1.34-5c.78-20.87,1.15-41.51.62-62.39l-6.64,2.54a5,5,0,0,0-1.52,1.18q-1.05,1-1.81.76c-1.47-.54-3.54-3.26-6.3-8.22s-4.08-8.31-3.79-10c.35-2,1.86-3.59,4.33-4.65a4.71,4.71,0,0,1,2.5-.16,5.6,5.6,0,0,0,2.41,0c11.07-3.94,22.25-7.59,33.57-10.8a24.43,24.43,0,0,0,2.82-1.24,5.23,5.23,0,0,1,2.82-.52c1.81.24,3,.91,3.69,2.15a20.23,20.23,0,0,1,1.43,5,44.33,44.33,0,0,1,.9,8.71,15.74,15.74,0,0,1-.57,4.61C821.68,389.56,820.5,390.21,818.63,390.27Z" transform="translate(-95.23 -330.82)"/><path class="cls-9" d="M877.68,458.17c.57,1.17-1.07,5.56-4.15,11s-5.34,7.48-7.14,7.42-3.43-1.17-4.44-3.67a20.68,20.68,0,0,0-1.15-3.43c-6.15-8.66-11.59-17.86-17.23-26.86-.71,10.18-1.23,16.07-1.77,25.37a9.45,9.45,0,0,0,.58,3.41,9.36,9.36,0,0,1,.64,2.85c-.08,2.2-1.3,3.21-3.61,3.43a25.42,25.42,0,0,1-8-1.1c-3.78-1-5.72-2-5.68-3.22a7.38,7.38,0,0,1,.28-1.55,12.56,12.56,0,0,0,.34-2.58c1.7-30.11,2.58-60,3-90.2a4,4,0,0,0-.27-1.58,2.91,2.91,0,0,1-.28-1.05c.06-2.19,1.4-3.42,3.93-3.84.78-.16,2.54.17,5.27,1a18.07,18.07,0,0,0,5.84,1.17c1.1-.09,3.37-1.26,6.82-3.27a18.68,18.68,0,0,1,9-2.93,14.46,14.46,0,0,1,3,.27,9.22,9.22,0,0,1,4.86,2.73,55.29,55.29,0,0,1,4.06,4.71,69.58,69.58,0,0,1,5.1,7.19,17.59,17.59,0,0,1,2.08,9.45c-.81,14.43-9.77,26.76-20.28,36.75,5.9,7.65,10.56,16.2,15,24.73a13.81,13.81,0,0,1,2.22,1.68A7.36,7.36,0,0,1,877.68,458.17Zm-16.15-72.07c-3,0-8.57,4.76-16.36,14-.28,8.66-.42,13.06-.55,19.61,2.69-1.21,6.25-4.9,10.95-12.71s7.27-14.18,7.46-18.15C863.11,387,862.61,386.1,861.52,386.11Z" transform="translate(-95.23 -330.82)"/><path class="cls-9" d="M936.38,376.87c.16-.95-.83,8.07-2.94,27.14-1.6,14.46-1.56,68.06-21.57,73.41a13.08,13.08,0,0,1-6.06-1c-2.34-.89-4.7-2-6.85-2.79-1.81-.67-3.91-1.26-5.88-2a8.29,8.29,0,0,1-4.46-3.72c-2.17-3.78-3.23-13.23-3.44-26.88-.2-12.35-.55-24.67.23-36.82a313.56,313.56,0,0,1,3.5-31.49c.39-2.42,1.38-3.79,3-4.42.72-.28,3.18.13,7.35,1.38s6.55,2.41,7.2,3.43a3.23,3.23,0,0,1,.35,1.94,16.85,16.85,0,0,1-1.31,4.59,15.43,15.43,0,0,0-1.26,4.86c-.47,1.77-1.16,7.16-1.86,15.81-1,12.82-.9,25.7-1.26,38.56-.45,16.31.32,25.25,2.66,24.9,2.95-.44,6.09-9.11,9.25-24.23,2.54-12.16,3.45-24.78,4.69-37.16,1.12-11.11,1.63-18.34,1.44-21.07a11.67,11.67,0,0,0,0-4.38c-.39-1.86-.63-2.84-.62-3-.17-2.76.64-4.59,2.51-5.79a3.34,3.34,0,0,1,1.66-.33,28,28,0,0,1,8,1.48c3.41,1,5.35,2,5.87,2.76C937,372.58,936.91,374.1,936.38,376.87Z" transform="translate(-95.23 -330.82)"/><path class="cls-9" d="M984.68,447.37a13.42,13.42,0,0,1-2.6,5.63,76,76,0,0,1-10.44,16.74c-4.52,5.45-7.76,7.47-10.19,7.47a4.69,4.69,0,0,1-1-.1,82.25,82.25,0,0,1-8.74-3.73c-5.69-3-9.6-9.4-11.33-20-1.59-9.69-1.61-20.24-1-30,.77-13.14,4.66-26.49,10.09-38.51,5.74-12.71,11.44-17.21,17.93-17.62,2.5-.16,6.13,1,10.61,4.32s7.15,7,8.11,10.85.36,13.51-.87,26.28a32.4,32.4,0,0,1-1.74,7.86c-1.06,2.95-2.09,4-3.24,3.84a38,38,0,0,1-8-2.43c-3.8-1.59-5.79-3-6-4.23a3.89,3.89,0,0,1-.05-1.15,8.56,8.56,0,0,1,1.16-3,9.21,9.21,0,0,0,1.2-3.09c.82-3.82,1.53-7.6,2-11.14q1.11-7.66.36-10.52c-4.38,4.22-8.37,11.8-11.53,21.4A92.15,92.15,0,0,0,955,429.1c-.56,6.48-1.09,13.65-1,19.89s.65,10,1.76,11.25c.54.55,2.46-1.27,5.85-5.62a56.83,56.83,0,0,0,6.86-10.46c.07-.09.52-1.68,1.43-4.38.54-1.59,1.21-2.6,1.86-2.92,1.08-.54,3.67.68,7.57,3.8S985,446.07,984.68,447.37Z" transform="translate(-95.23 -330.82)"/><path class="cls-9" d="M1039.09,455.53c-.24,2.3-2.06,6.85-5.11,12.6-3.19,6-5.22,8.18-6.72,8-1.8-.26-5.56-4.13-9.87-14.49-4.83-11.6-7.68-18.78-9-20.33-1.53,10-2.67,15.91-3.94,25.34a9.9,9.9,0,0,0,.21,2.64,18.39,18.39,0,0,1,.34,2.64c0,3.11-.63,4.83-2,5.61a6,6,0,0,1-3,.58,18.12,18.12,0,0,1-7.77-1.69c-2.78-1.3-4.08-2.9-3.87-4.86,4.23-32.1,8.29-64.12,13.1-96.14a14.82,14.82,0,0,1,1.86-5.2,6.73,6.73,0,0,1,3-3.23,2.83,2.83,0,0,1,.86-.11c1.84,0,4.43.68,7.66,2.29s4.9,3.1,5.06,4.35c.05.58-.66,3.58-2.43,9.85-2,7.12-3.45,13-4.1,16.8q-.33,1.91-.47,3.35c7.14-12.19,14.17-24.47,21.9-36.31a4.12,4.12,0,0,1,3.72-2.2c1.57.06,3.95,1,6.79,3.21,3.22,2.53,4.63,5.44,4.23,8.23-.11.79-3.45,5.85-10.36,16.08-6.64,9.82-13.11,19.84-19.28,30,7,8.34,10.85,18.9,14.93,28.81.3.75,1.24,1.34,2.64,1.83A2.17,2.17,0,0,1,1039.09,455.53Z" transform="translate(-95.23 -330.82)"/><path class="cls-9" d="M1084.7,455.81q-1.87,10.35-7,15.91c-3.44,3.71-7.72,5.33-13,5.39a13.85,13.85,0,0,1-4.3-.71c-2.78-.89-4.21-1.37-4.33-1.37-1.45-.36-2.91-.74-4.37-1.15a6.45,6.45,0,0,1-3.64-2.58c-1.44-1.89-2.34-5.13-2.61-10-.32-5.66-.65-9.5-1.07-11a17.88,17.88,0,0,1-1.07-3.94,9,9,0,0,1,1.2-4.09,4,4,0,0,1,4.39-2.78,31.86,31.86,0,0,1,7.74,1.15c3,.77,4.62,1.48,4.88,2.12s.18,4-.3,10.08c-.44,5.63-.12,8.65.89,9.28a1.18,1.18,0,0,0,.79.27c1.17,0,2.39-1.39,3.73-4.3a41.7,41.7,0,0,0,3-10c1.47-8.15.55-13.15-2.48-15.53-7-5.49-12.42-9.05-15.11-13.27-3.11-4.88-3.51-12.05-1.43-21a75.83,75.83,0,0,1,9.16-22c4.17-6.77,7.54-9.64,11-10.51,1.45-.33,5.86.91,12.7,4.73q2.56,1.29,5.1,2.79a8.49,8.49,0,0,1,3.7,4.58q1.79,4.76-.87,17.66c-.33,1.6-.85,4-1.51,7-.58,2.63-1,4.46-1.13,5.45a14.24,14.24,0,0,0,.1,3.15,9.35,9.35,0,0,1-.08,2.88c-.72,3.67-1.93,5.43-4.11,5.8-1.25.21-3.52-.34-6.69-1.68-3.5-1.48-5.67-3.13-6.37-5a9.06,9.06,0,0,1,.24-2.65c.23-1.35.87-4.46,2.11-9.68s2.16-9.12,2.63-11.51c.85-4.27.89-6.24.27-6.16-1.92.24-4,2.32-6.08,6.54a55.29,55.29,0,0,0-4.73,14.34c-1.64,8.68-.61,13.95,2.45,16.45,3.31,2.71,7.32,4.89,10.73,7.72a17.73,17.73,0,0,1,6.16,9.06C1086.48,441.43,1086.15,447.8,1084.7,455.81Z" transform="translate(-95.23 -330.82)"/><path class="cls-10" d="M225.1,601.7s-34.6,5.46-22.22-25.86,37.88-66.65,37.88-66.65,1.09-8.74,35.69-6.92L417,502s16-2.66,13.84,21-3.28,51.72-3.28,51.72-1.82,28.77-26.59,27.32Z" transform="translate(-95.23 -330.82)"/><path class="cls-10" d="M152.81,602.12S175.09,605.7,194,560l31.19-58.1Z" transform="translate(-95.23 -330.82)"/><path class="cls-11" d="M954.26,648.79s8.75,7.65,21.32,0V608.05s-2.73-1.64-3.83-16.13H959.18s-1.81,11.45-3.87,14.89a8,8,0,0,0-1,4.11Z" transform="translate(-95.23 -330.82)"/><path class="cls-12" d="M958.91,590.19s6.83-5.19,12.85,0v5.19H959.18Z" transform="translate(-95.23 -330.82)"/><path class="cls-13" d="M976.07,648.79s8.75,7.65,21.32,0V608.05s-2.73-1.64-3.83-16.13H981s-2.46,15.58-4.92,15.86Z" transform="translate(-95.23 -330.82)"/><path class="cls-12" d="M980.71,590.19s6.83-5.19,12.85,0v5.19H981Z" transform="translate(-95.23 -330.82)"/><path class="cls-14" d="M1018.72,648.79s8.75,7.65,21.32,0V611.38a11.17,11.17,0,0,0-1-4.83c-.89-1.86-2.14-5.93-2.8-14.63h-12.58s-2.46,15.58-4.92,15.86Z" transform="translate(-95.23 -330.82)"/><path class="cls-12" d="M1023.36,590.19s6.83-5.19,12.85,0v5.19h-12.58Z" transform="translate(-95.23 -330.82)"/><path class="cls-15" d="M997.39,648.79s8.75,7.65,21.32,0V608.05s-2.73-1.64-3.83-16.13h-12.58s-2.46,15.58-4.92,15.86Z" transform="translate(-95.23 -330.82)"/><path class="cls-12" d="M1002,590.19s6.83-5.19,12.85,0v5.19h-12.58Z" transform="translate(-95.23 -330.82)"/><polygon class="cls-8" points="644.96 321.37 644.96 271.3 545.74 271.3 545.74 321.37 446.98 321.37 644.96 321.37"/><rect class="cls-8" x="446.98" y="271.3" width="98.76" height="50.07"/><rect class="cls-16" x="446.98" y="264.57" width="197.98" height="6.74"/><path class="cls-6" d="M518.54,496.44c0,14.59,131.27,26.4,293.5,26.4" transform="translate(-95.23 -330.82)"/><path class="cls-11" d="M684.44,593s8.75,7.65,21.32,0V552.31s-2.73-1.64-3.83-16.13H689.36s-1.81,11.45-3.87,14.89a8,8,0,0,0-1,4.11Z" transform="translate(-95.23 -330.82)"/><path class="cls-12" d="M689.08,534.44s6.83-5.19,12.85,0v5.19H689.36Z" transform="translate(-95.23 -330.82)"/><path class="cls-6" d="M1099.32,496.44c0,14.59-128.49,26.4-287.29,26.4" transform="translate(-95.23 -330.82)"/><path class="cls-17" d="M533.57,504.81,537.94,553l32.35-41.54S535.81,505.44,533.57,504.81Z" transform="translate(-95.23 -330.82)"/><polygon class="cls-18" points="488.17 182.19 496.21 228.53 526.08 185.7 488.17 182.19"/><path class="cls-17" d="M635.47,517.54,653,564.29l22.46-44.47S637.85,517.7,635.47,517.54Z" transform="translate(-95.23 -330.82)"/><polygon class="cls-18" points="599.49 189.84 615.75 240.47 639.63 191.1 599.49 189.84"/><polygon class="cls-17" points="663.68 191.59 682.82 242.52 707.31 192.03 663.68 191.59"/><polygon class="cls-18" points="736.32 191.97 759.16 242.52 778.7 191.41 736.32 191.97"/><path class="cls-17" d="M894.09,521.75l22.63,48.09,17.69-49.5S896.55,521.69,894.09,521.75Z" transform="translate(-95.23 -330.82)"/><path class="cls-18" d="M954.26,519.39l21.8,44.9,17.5-47.37S956.38,519.28,954.26,519.39Z" transform="translate(-95.23 -330.82)"/><path class="cls-17" d="M1008.05,515.75l30.27,42.77,8.42-46.85S1010.23,515.57,1008.05,515.75Z" transform="translate(-95.23 -330.82)"/><path class="cls-18" d="M1058.67,510l30.89,41.53,7.84-52S1084.69,506.82,1058.67,510Z" transform="translate(-95.23 -330.82)"/><path class="cls-15" d="M551.93,593s8.75,7.65,21.32,0V552.31s-2.73-1.64-3.83-16.13H556.85s-2.46,15.58-4.92,15.86Z" transform="translate(-95.23 -330.82)"/><path class="cls-12" d="M556.58,534.44s6.83-5.19,12.85,0v5.19H556.85Z" transform="translate(-95.23 -330.82)"/></svg>